<?xml version="1.0" standalone="no"?>
<!DOCTYPE svg PUBLIC "-//W3C//DTD SVG 20010904//EN"
 "http://www.w3.org/TR/2001/REC-SVG-20010904/DTD/svg10.dtd">
<svg version="1.0" xmlns="http://www.w3.org/2000/svg"
 width="878.000000pt" height="878.000000pt" viewBox="0 0 878.000000 878.000000"
 preserveAspectRatio="xMidYMid meet">
<metadata>
Created by potrace 1.14, written by Peter Selinger 2001-2017
</metadata>
<g transform="translate(0.000000,878.000000) scale(0.100000,-0.100000)"
fill="#000000" stroke="none">
<path d="M1338 8773 l1342 -3 -6 -28 c-3 -15 -25 -92 -49 -172 -91 -304 -118
-440 -135 -685 -18 -275 -8 -575 25 -725 8 -36 19 -96 25 -135 17 -116 52
-257 60 -248 5 4 0 44 -11 88 -27 114 -24 119 21 38 54 -97 67 -101 25 -8 -46
100 -44 108 4 18 75 -141 187 -260 351 -372 122 -84 320 -178 356 -170 5 1 61
-23 124 -54 63 -30 126 -57 140 -59 21 -3 5 -16 -95 -82 -131 -86 -332 -229
-464 -330 -77 -60 -150 -134 -218 -222 -20 -27 -62 -53 -167 -105 -271 -132
-442 -169 -791 -169 -280 0 -436 26 -578 95 -41 20 -61 26 -47 15 36 -29 195
-106 265 -129 102 -33 204 -51 367 -63 190 -14 411 -1 613 37 141 26 175 27
68 1 -343 -83 -777 -81 -1044 5 -175 56 -363 175 -538 343 -52 50 -87 78 -76
61 71 -115 215 -260 342 -345 210 -140 498 -235 783 -258 l95 -8 -129 -13
c-133 -14 -389 -9 -471 9 -37 9 -36 9 15 5 156 -12 274 -17 269 -11 -4 4 -67
23 -140 42 -74 19 -170 46 -214 61 -379 124 -691 406 -890 802 -81 162 -93
222 -220 1115 -5 31 -3 37 7 29 325 -257 397 -308 541 -388 38 -21 79 -48 91
-60 12 -12 76 -54 142 -94 65 -39 126 -76 134 -81 88 -54 607 -286 618 -276 3
3 0 6 -6 6 -7 0 -12 5 -12 11 0 13 171 3 285 -17 44 -8 143 -21 219 -29 77 -9
150 -18 164 -22 85 -21 -132 -49 -263 -33 -80 10 -291 52 -334 67 -9 4 -13 3
-10 0 9 -11 165 -56 252 -72 135 -26 350 -37 478 -26 138 12 254 32 238 41 -6
4 21 9 59 12 38 3 74 8 81 12 7 5 -9 21 -41 43 -66 44 -168 142 -216 208 -20
27 -65 101 -100 165 -58 106 -71 117 -36 31 8 -18 14 -37 14 -42 0 -5 -25 -9
-55 -9 -30 0 -175 -11 -323 -25 -490 -45 -730 -43 -915 5 -141 37 -442 177
-595 276 -75 49 -342 258 -399 313 -55 53 -55 23 2 -384 63 -445 102 -640 167
-823 71 -205 194 -410 335 -562 44 -49 100 -124 130 -175 92 -160 195 -267
319 -332 30 -15 54 -30 54 -33 0 -3 -75 -40 -168 -84 -396 -186 -455 -206
-509 -171 -19 13 -24 14 -16 4 11 -13 -12 -17 -180 -27 -106 -7 -261 -12 -344
-12 -96 0 -153 -4 -153 -10 0 -5 6 -10 13 -11 69 -3 370 4 514 12 134 8 191 8
215 0 17 -6 28 -8 25 -4 -4 3 24 16 63 29 38 12 182 76 319 143 l250 122 58
-15 c32 -8 81 -17 108 -20 61 -7 299 17 385 39 67 17 193 65 187 71 -1 2 -45
-11 -97 -27 -138 -44 -226 -59 -360 -59 -87 0 -134 5 -178 19 -34 10 -71 17
-84 14 -60 -11 -260 147 -345 273 -53 78 -72 113 -52 98 75 -61 214 -159 261
-184 32 -17 102 -43 155 -57 217 -57 492 -22 754 95 29 13 87 24 169 32 69 6
138 14 154 17 26 5 28 4 21 -13 -9 -20 -73 -191 -80 -211 -7 -22 -557 -436
-757 -571 -43 -29 -78 -54 -78 -56 0 -7 222 74 293 107 107 49 295 162 395
236 82 61 97 66 65 21 -81 -110 -341 -275 -583 -370 -47 -18 -89 -36 -93 -40
-9 -8 117 -34 244 -50 71 -10 159 -9 281 0 18 1 23 12 33 78 4 23 28 98 55
165 47 122 77 209 165 490 57 181 177 424 287 583 128 184 327 357 683 594 77
51 146 102 153 112 8 10 55 39 105 65 51 25 128 69 172 98 112 73 331 199 450
257 55 27 89 46 75 43 -47 -13 -285 -133 -431 -219 -94 -55 -157 -86 -175 -86
-45 1 -192 35 -264 63 -81 30 -257 118 -330 165 -30 19 -95 71 -145 115 -91
81 -112 101 -194 192 l-45 50 33 -60 c78 -141 231 -318 356 -413 72 -54 91
-73 50 -47 -98 60 -290 224 -378 324 -116 130 -219 312 -275 486 -30 91 -70
319 -74 417 -1 29 -5 -5 -9 -77 -4 -84 -5 -37 -3 135 4 360 20 466 128 845 24
83 46 162 50 178 6 27 7 27 89 27 l82 0 50 -77 c69 -107 248 -358 299 -418 23
-27 47 -61 53 -75 17 -39 178 -205 288 -297 222 -187 565 -392 809 -484 107
-40 99 -51 -11 -14 -188 63 -483 230 -714 404 -65 49 -115 82 -112 73 4 -9 58
-73 122 -142 264 -288 521 -522 586 -536 17 -3 125 -37 240 -76 203 -67 492
-147 538 -149 12 0 16 -3 9 -6 -15 -6 -266 46 -476 98 -87 22 -163 38 -169 36
-5 -1 27 -22 72 -45 92 -47 89 -50 -19 -22 -41 10 -76 18 -77 16 -9 -9 252
-93 387 -124 86 -20 276 -41 470 -52 227 -13 374 -32 505 -65 93 -23 218 -65
213 -71 -2 -1 -55 13 -117 31 -166 50 -264 63 -566 80 -275 15 -359 23 -491
51 -173 35 -417 122 -674 239 -153 69 -166 74 -115 40 80 -52 403 -205 517
-244 211 -72 379 -102 808 -147 233 -24 262 -29 335 -59 178 -73 211 -88 240
-109 17 -12 44 -28 60 -35 l30 -14 -25 -8 c-14 -4 -44 -7 -67 -8 -66 -2 -164
-38 -353 -132 -188 -94 -436 -241 -433 -257 1 -5 -5 -9 -15 -8 -9 0 -17 -4
-17 -11 0 -6 -4 -15 -9 -20 -5 -5 -6 -2 -1 6 5 9 3 12 -6 9 -8 -3 -14 -10 -14
-15 0 -6 -4 -15 -9 -20 -5 -5 -6 -2 -1 6 5 9 3 12 -6 9 -8 -3 -14 -10 -14 -16
0 -6 -43 -47 -96 -90 -197 -164 -809 -756 -1016 -984 -64 -70 -119 -125 -123
-123 -5 3 -18 -11 -30 -30 -12 -20 -24 -34 -27 -32 -11 11 52 123 131 233 109
152 220 278 460 522 104 105 186 192 182 192 -34 0 -375 -323 -550 -520 -196
-221 -438 -534 -605 -785 -84 -126 -88 -135 -130 -280 -56 -197 -56 -196 -35
-163 17 25 50 38 100 38 30 0 30 -4 -6 -65 -23 -39 -41 -55 -82 -75 -45 -21
-54 -31 -65 -65 l-12 -40 4 55 c3 30 22 125 43 210 22 85 38 157 36 158 -1 2
-31 -44 -65 -103 -35 -59 -73 -111 -84 -115 -72 -27 -72 -29 -21 66 26 49 43
85 37 79 -5 -5 -29 -46 -54 -89 -45 -82 -48 -85 -107 -111 -19 -8 -27 -13 -17
-10 11 3 30 8 43 11 l25 6 -37 -78 c-19 -44 -43 -96 -51 -116 -14 -35 -18 -38
-57 -38 -38 -1 -40 -2 -21 -16 11 -8 25 -12 31 -10 7 3 11 -1 10 -7 -3 -25
-100 -279 -103 -271 -2 5 0 43 5 84 6 67 9 75 27 71 20 -3 20 -3 1 18 -18 20
-18 24 -1 158 9 76 22 141 29 145 8 5 8 8 0 8 -8 0 -7 22 2 77 8 42 12 78 10
81 -3 3 -46 -126 -112 -342 -33 -107 -26 -39 11 101 45 173 161 519 214 643
23 51 41 96 41 99 0 3 -12 -12 -26 -33 -68 -99 -228 -476 -291 -683 -15 -51
-32 -93 -38 -93 -34 1 -35 16 -5 158 52 253 86 345 287 767 102 214 158 344
150 351 -5 5 -53 -56 -104 -131 -80 -119 -158 -252 -245 -420 -48 -93 -88
-167 -88 -163 0 4 25 78 55 165 30 86 54 162 52 168 -5 12 -95 -171 -166 -335
-44 -105 -48 -117 -34 -132 14 -16 13 -18 -9 -27 -21 -8 -29 -25 -52 -103 -35
-123 -62 -244 -77 -348 -6 -47 -17 -96 -24 -110 -7 -14 -15 -36 -19 -50 -7
-24 -7 -25 6 -3 11 18 13 -7 13 -160 0 -164 2 -191 25 -267 l24 -85 13 135
c14 140 78 596 92 659 17 69 11 4 -19 -204 -43 -305 -54 -441 -45 -580 4 -66
9 -176 11 -244 4 -136 13 -194 50 -315 13 -44 22 -81 21 -82 -6 -7 -166 230
-200 296 -40 78 -50 139 -34 205 4 18 4 24 -1 15 -5 -8 -17 -46 -27 -85 -10
-38 -21 -74 -25 -78 -23 -26 -16 351 10 558 5 44 14 123 21 175 6 52 17 124
26 160 8 36 16 73 18 83 2 9 7 22 11 29 4 6 -5 3 -19 -8 -15 -10 -27 -22 -27
-27 0 -11 -219 -253 -354 -392 -112 -115 -115 -118 -85 -65 17 30 41 66 54 80
62 66 248 429 331 643 29 78 52 142 50 144 -6 7 -23 -23 -51 -92 -25 -63 -60
-106 -89 -111 -211 -39 -428 -52 -444 -27 -4 7 -19 16 -32 22 l-25 10 28 0
c96 3 336 75 462 139 l80 41 -50 1 c-84 1 -223 19 -358 46 -88 18 -131 23
-140 16 -35 -29 -313 -86 -497 -101 -196 -17 -205 -20 -55 -15 77 3 158 7 180
10 30 3 35 2 19 -5 -11 -5 -72 -14 -134 -21 -144 -15 -277 -7 -484 31 -88 16
-161 27 -163 25 -2 -2 41 -21 96 -42 55 -21 98 -40 96 -42 -5 -6 -225 55 -295
82 -36 13 -95 38 -132 55 -38 16 -68 28 -68 25 0 -17 266 -120 398 -153 79
-20 300 -51 369 -51 21 0 66 -9 99 -20 79 -24 232 -41 409 -45 77 -1 147 -3
156 -4 12 -1 9 -14 -18 -68 -18 -38 -44 -103 -58 -145 l-26 -77 -87 -20 c-142
-33 -255 -44 -477 -45 -136 -1 -184 -3 -135 -7 209 -17 458 -5 607 31 43 10
79 18 80 16 1 -1 -3 -22 -9 -46 -7 -27 -31 -69 -59 -104 -52 -65 -139 -216
-175 -304 -13 -32 -28 -89 -34 -127 -6 -39 -18 -80 -26 -93 -15 -22 -15 -23 5
-12 15 7 21 7 21 0 0 -6 28 17 63 51 34 33 114 96 178 139 118 80 327 192 313
168 -4 -7 -34 -48 -67 -91 -33 -42 -57 -80 -54 -84 4 -3 61 44 127 106 67 61
129 111 138 111 9 0 57 13 107 29 49 16 91 28 93 26 2 -2 -12 -36 -31 -77 -41
-87 -114 -192 -194 -278 -55 -60 -56 -63 -28 -56 39 10 232 36 268 36 27 0 27
0 27 -72 0 -85 18 -242 31 -272 7 -16 8 -12 3 14 -4 26 -3 31 5 20 8 -12 11
-8 11 16 0 41 11 94 19 94 3 0 12 -19 19 -42 33 -106 295 -484 392 -564 l35
-29 -23 30 c-13 17 -36 47 -51 67 -36 48 -54 151 -52 313 1 98 22 269 34 282
2 1 25 -19 51 -46 27 -27 54 -47 62 -44 7 2 17 -4 22 -14 6 -10 42 -34 81 -53
81 -39 79 -36 124 -221 14 -58 39 -141 57 -185 30 -77 131 -257 150 -269 5 -3
-15 35 -45 85 -29 50 -69 130 -88 178 -33 82 -80 254 -90 333 l-5 37 45 -14
c25 -8 52 -19 60 -25 7 -7 37 -55 67 -108 29 -53 77 -139 106 -191 29 -52 61
-111 71 -130 41 -79 99 -367 99 -494 0 -65 6 -61 -135 -71 -76 -5 -262 -29
-315 -40 -8 -2 -18 -4 -22 -4 -5 -1 -8 -8 -8 -16 0 -9 -18 -50 -39 -93 -21
-43 -51 -118 -66 -167 -25 -83 -142 -401 -179 -487 -9 -21 -44 -64 -78 -97
l-62 -59 -81 -7 c-126 -10 -275 -43 -325 -72 -77 -44 -214 -145 -242 -178 -51
-60 -96 -82 -181 -89 -133 -10 -139 -15 -282 -233 -55 -85 -69 -113 -56 -113
11 0 49 49 109 139 62 95 101 145 122 156 17 9 71 19 120 24 84 8 92 11 136
47 25 22 65 52 88 68 22 16 81 61 129 99 78 62 98 72 165 89 43 10 129 23 192
30 l115 12 53 55 c62 65 102 116 102 129 0 5 16 43 35 85 36 79 117 290 131
342 l8 30 6 -35 c5 -32 8 -26 38 70 49 151 97 248 130 262 52 21 269 37 500
38 279 0 309 -5 369 -68 56 -58 69 -83 77 -158 l7 -60 -128 -110 c-160 -136
-511 -480 -500 -490 4 -4 51 35 105 87 53 52 134 128 179 168 46 40 80 77 78
81 -5 7 119 127 226 219 37 31 37 31 43 9 5 -19 -3 -31 -45 -68 -29 -25 -93
-80 -143 -124 -161 -139 -406 -377 -406 -394 0 -9 81 64 183 164 100 99 223
216 272 259 50 44 102 90 118 104 l27 25 0 -25 c0 -20 -24 -46 -112 -120 -123
-103 -402 -375 -437 -426 -46 -68 0 -34 139 101 80 78 127 126 105 106 -22
-19 -64 -57 -92 -85 -29 -27 -53 -45 -53 -39 0 22 428 424 452 424 4 0 8 -13
8 -28 0 -23 -20 -46 -111 -128 -115 -102 -350 -340 -396 -400 -14 -19 -23 -38
-19 -41 4 -4 80 67 169 157 89 91 137 142 107 115 -129 -118 -103 -86 64 79
99 97 181 174 183 172 3 -2 6 -15 7 -29 3 -21 -14 -40 -92 -109 -52 -45 -166
-157 -253 -247 -143 -147 -178 -191 -150 -191 5 0 60 48 122 106 125 117 243
222 274 244 11 7 -48 -56 -131 -141 -180 -184 -236 -248 -228 -261 4 -6 54 36
112 93 l105 104 -74 -85 c-41 -47 -85 -98 -98 -115 l-23 -30 -50 55 c-27 30
-85 96 -127 145 l-78 91 196 200 c108 110 243 242 301 293 58 52 114 103 125
115 l20 20 -20 -15 c-84 -64 -262 -225 -433 -393 -127 -126 -206 -196 -212
-190 -9 9 318 350 500 519 114 106 94 92 -50 -34 -58 -51 -188 -175 -291 -276
l-185 -184 -43 55 c-48 62 -46 41 -25 243 5 47 4 62 -4 57 -8 -5 -10 2 -6 24
9 41 -11 39 -25 -2 -18 -55 -41 -177 -41 -216 0 -46 15 -32 28 28 9 42 10 43
11 12 1 -18 -4 -42 -9 -53 -8 -13 -7 -26 1 -41 11 -23 123 -164 145 -183 43
-39 286 -308 288 -318 1 -8 65 -77 141 -154 146 -146 323 -287 353 -281 11 2
-15 25 -78 68 -109 73 -358 310 -346 329 9 14 246 134 246 124 0 -4 -19 -27
-42 -51 -24 -25 -34 -40 -23 -34 11 6 57 48 102 94 99 102 103 113 113 348 4
96 10 182 14 190 3 9 140 82 304 165 230 115 309 150 352 156 30 4 70 10 89
13 36 6 302 128 295 135 -2 2 41 28 96 57 109 58 244 138 390 232 52 34 96 60
97 58 2 -2 -6 -54 -17 -117 -11 -63 -22 -148 -25 -189 -3 -41 -10 -99 -15
-129 -6 -30 -10 -89 -10 -131 0 -46 -5 -81 -12 -88 -9 -9 -9 -12 0 -12 9 0 12
-28 12 -97 0 -129 18 -312 35 -365 l14 -43 -5 66 -6 66 86 91 c48 50 153 151
234 225 192 175 201 184 182 171 -40 -27 -260 -226 -377 -342 l-131 -128 -6
35 c-10 60 -7 89 9 93 18 4 515 486 515 500 0 6 -73 -61 -163 -148 -90 -88
-209 -201 -265 -253 l-102 -93 0 45 c0 24 -3 64 -6 89 l-6 45 142 149 143 149
-142 -142 c-128 -129 -141 -139 -141 -114 0 23 25 56 114 154 63 69 109 124
101 123 -19 -3 -168 -137 -160 -144 3 -3 19 8 37 24 17 16 7 1 -23 -34 -53
-62 -54 -63 -57 -34 -2 21 5 38 27 61 17 18 45 52 62 75 19 25 8 16 -30 -24
l-60 -65 -1 32 c0 20 10 44 27 65 21 25 22 28 5 14 l-22 -19 0 51 c0 29 5 52
10 52 6 0 10 6 10 13 0 7 14 28 30 47 l30 35 -21 -40 -21 -40 39 44 40 44 149
8 c158 8 343 -1 484 -22 70 -11 107 -24 215 -79 126 -63 131 -67 179 -135 56
-79 99 -182 151 -361 42 -143 80 -240 92 -236 4 2 9 -4 11 -12 2 -9 -1 -16 -7
-16 -5 0 -8 -14 -5 -33 7 -42 -45 -216 -92 -311 -41 -81 -40 -80 47 29 103
129 132 179 127 221 l-4 36 40 -6 c66 -11 167 -45 231 -79 l59 -32 12 -76 c11
-75 41 -140 54 -120 9 15 173 -82 381 -225 247 -169 302 -204 327 -204 13 0
-89 74 -256 186 -263 178 -423 270 -448 260 -11 -4 -18 22 -39 157 -5 31 -14
43 -51 67 -42 26 -192 78 -279 97 -33 7 -46 17 -83 71 -40 56 -50 85 -98 265
-30 110 -54 209 -54 218 0 10 -6 22 -14 26 -21 13 -57 101 -43 107 9 4 8 8 -2
12 -7 4 -22 15 -32 25 -11 11 -22 18 -27 17 -4 -2 -72 30 -152 70 -197 98
-247 107 -592 106 -231 0 -256 1 -245 15 7 9 75 88 152 176 77 88 155 178 174
199 22 27 31 33 27 18 -14 -43 -21 -118 -15 -152 3 -19 7 -27 8 -17 3 43 121
242 293 492 101 146 158 223 114 152 -10 -16 -16 -30 -14 -33 4 -4 45 49 121
158 40 57 56 71 107 94 33 15 58 30 55 33 -2 4 30 36 71 70 42 35 73 65 70 68
-2 3 13 31 35 63 21 31 39 63 39 69 0 6 13 11 29 11 16 0 37 3 46 6 20 8 45
55 45 85 0 12 9 48 21 80 19 51 25 58 54 63 45 9 66 36 67 86 0 27 7 49 19 61
10 10 25 44 34 76 9 32 25 79 35 104 11 25 28 118 40 210 11 90 25 178 30 195
6 17 14 82 19 145 5 63 18 161 31 219 19 92 21 129 18 303 -2 109 -2 195 -1
190 2 -4 9 -48 18 -98 l14 -90 -5 75 c-8 121 -42 311 -94 520 -27 107 -60 245
-74 306 -13 61 -34 139 -46 173 -11 35 -20 65 -18 66 9 10 277 -344 411 -543
61 -91 15 37 -57 157 -18 31 -42 81 -51 111 -30 90 -85 203 -210 425 -125 224
-200 345 -212 345 -5 0 -38 36 -75 79 -108 127 -287 262 -383 289 -187 54
-291 72 -403 72 -62 0 -74 15 -43 57 89 120 12 479 -141 656 -15 18 -5 -2 22
-43 101 -154 146 -312 138 -474 -5 -85 -21 -146 -39 -146 -4 0 -10 32 -14 72
-6 62 -19 121 -54 254 -5 17 -19 46 -32 64 -30 41 -459 418 -599 526 -242 187
-512 313 -798 374 -57 12 -113 19 -125 17 -16 -3 -14 -5 9 -6 16 0 52 -15 80
-32 75 -47 519 -504 673 -693 15 -18 15 -19 -9 -12 -14 4 -34 7 -45 7 -11 0
-92 9 -179 19 -147 18 -210 20 -140 5 16 -4 47 -16 69 -26 22 -11 31 -17 20
-14 -11 4 -40 11 -65 17 -25 6 -56 16 -70 23 -42 21 -108 28 -261 27 -161 -1
-151 -4 -349 83 -47 20 -128 53 -180 72 -110 40 -234 103 -373 191 -303 191
-463 356 -790 819 l-87 123 2953 3 c1623 1 974 2 -1443 2 -2417 0 -3791 -1
-3052 -2z m3817 -1389 c36 -15 64 -28 62 -30 -3 -4 -128 44 -136 52 -10 9 12
3 74 -22z m185 -84 c55 -28 100 -52 100 -55 0 -5 -199 92 -209 101 -14 13 21
-2 109 -46z m-2803 -47 c-2 -16 -4 -5 -4 22 0 28 2 40 4 28 2 -13 2 -35 0 -50z
m2953 -39 c0 -2 -9 0 -20 6 -11 6 -20 13 -20 16 0 2 9 0 20 -6 11 -6 20 -13
20 -16z m-2924 -132 c-6 -5 -26 95 -25 121 0 12 7 -9 15 -47 7 -39 12 -72 10
-74z m3033 64 c95 -67 251 -198 304 -255 26 -28 47 -48 47 -45 0 10 -63 99
-109 153 -37 44 -40 51 -17 36 37 -24 125 -129 171 -204 21 -34 39 -61 41 -61
1 0 -4 28 -12 61 -8 34 -13 64 -10 66 2 2 25 -23 50 -56 30 -39 46 -69 46 -88
0 -33 -28 -133 -40 -147 -5 -5 -26 27 -48 70 -92 184 -219 314 -502 517 -15
10 -17 14 -5 8 11 -5 49 -30 84 -55z m-522 -182 c-3 -3 -12 -4 -19 -1 -8 3 -5
6 6 6 11 1 17 -2 13 -5z m-3947 -324 c30 -16 49 -29 42 -30 -12 0 -70 28 -102
49 -30 21 7 9 60 -19z m5287 -168 c92 -70 234 -215 318 -327 82 -110 210 -317
335 -543 58 -105 106 -189 108 -188 4 5 -108 328 -164 469 -31 78 -85 202
-121 276 -72 147 -123 208 -257 307 -36 26 -64 49 -62 52 8 7 86 -39 162 -97
44 -33 131 -113 195 -178 116 -117 117 -119 172 -245 68 -153 109 -275 147
-431 37 -150 46 -215 65 -477 8 -118 17 -233 20 -255 3 -22 -10 14 -29 80 -52
184 -194 545 -204 517 -2 -6 8 -46 21 -89 14 -43 38 -132 53 -198 26 -111 28
-136 29 -325 0 -207 -21 -465 -36 -438 -4 8 -17 57 -28 109 -19 94 -19 94 -20
39 -1 -30 -6 -73 -12 -95 -6 -22 -14 -98 -18 -170 l-6 -130 -23 135 c-32 186
-84 401 -134 552 -23 70 -43 126 -45 124 -2 -2 5 -55 16 -117 31 -177 92 -601
88 -605 -5 -5 -37 180 -77 446 -17 112 -45 269 -61 348 -16 79 -26 156 -23
171 5 21 3 23 -6 11 -10 -12 -11 -11 -7 9 3 13 2 31 -3 40 -5 9 -21 72 -35
141 -89 424 -280 915 -427 1103 -16 20 -25 37 -20 37 6 0 46 -26 89 -58z
m-407 34 c0 -32 -68 -173 -123 -256 -166 -248 -343 -466 -687 -845 -223 -245
-323 -348 -212 -217 34 40 62 76 62 80 0 22 -295 -293 -391 -418 -37 -48 -30
-44 57 40 54 52 76 70 48 40 -28 -30 -95 -106 -150 -169 -92 -106 -99 -112
-106 -90 -7 22 -7 22 -4 -3 2 -16 0 -28 -4 -28 -4 0 -10 -9 -13 -20 -3 -11 -1
-20 4 -20 5 0 9 6 9 14 0 8 22 34 48 58 227 205 554 509 678 630 83 82 155
148 159 148 24 0 -179 -211 -392 -408 -73 -67 -129 -122 -125 -122 21 0 306
247 496 430 l98 95 -62 -120 c-59 -115 -60 -118 -25 -80 20 22 79 94 133 160
53 66 115 141 138 167 43 49 151 251 215 401 21 51 39 87 39 82 0 -23 -61
-255 -88 -335 -122 -354 -344 -754 -739 -1332 -105 -154 -151 -212 -206 -261
-169 -149 -390 -314 -396 -296 -2 7 62 75 142 153 81 78 189 190 241 250 52
60 111 122 131 138 19 16 33 34 30 39 -4 5 14 35 38 66 63 84 139 199 176 268
39 72 29 59 -45 -60 -70 -113 -209 -297 -266 -351 -41 -40 -215 -163 -303
-214 -40 -23 -40 -23 10 21 223 198 364 339 479 480 52 66 166 239 166 254 0
5 29 56 64 112 58 94 143 270 134 279 -3 2 -15 -15 -28 -39 -91 -166 -294
-427 -417 -536 -35 -31 -60 -62 -63 -79 -4 -20 -11 -26 -27 -25 -15 2 -59 -27
-131 -85 -60 -48 -162 -123 -225 -167 -64 -44 -118 -89 -121 -100 -10 -34 -7
-214 4 -220 10 -6 199 110 326 201 42 30 78 53 80 51 5 -5 -387 -397 -397
-397 -4 0 -9 8 -12 18 -2 9 -4 6 -3 -7 1 -24 -26 -51 -180 -179 l-39 -33 48
31 c26 17 75 54 108 82 60 49 90 59 53 16 -45 -51 282 187 426 312 359 310
603 619 834 1061 l66 124 0 -60 c0 -76 21 -157 66 -260 20 -44 79 -183 132
-310 83 -199 96 -237 96 -285 -1 -30 1 -46 4 -35 9 42 20 34 50 -37 40 -97 64
-160 60 -163 -3 -3 -127 14 -145 20 -8 3 -8 16 3 51 8 27 13 53 11 59 -2 5 -9
-14 -16 -43 -7 -28 -20 -56 -28 -60 -8 -5 -16 -24 -17 -43 -3 -33 -91 -212
-162 -330 -37 -61 -42 -78 -20 -60 11 9 16 9 22 0 4 -7 -1 -18 -11 -26 -14 -9
-21 -10 -26 -2 -4 7 -20 -3 -44 -27 -27 -29 -31 -31 -15 -9 l22 30 -21 3 c-48
8 -44 74 6 93 20 8 33 7 46 -1 23 -14 29 -6 85 100 62 117 62 115 -4 129 -63
12 -162 13 -209 1 -17 -4 7 -5 55 -3 47 3 103 0 125 -5 34 -8 21 -10 -79 -11
-100 -1 -123 2 -139 16 -11 10 -17 13 -14 6 5 -8 -16 -17 -69 -28 -68 -16 -77
-16 -91 -2 -14 14 -12 16 23 26 55 14 215 40 309 50 l80 8 -90 1 c-61 0 -133
-8 -223 -26 -87 -18 -136 -24 -142 -18 -7 7 -10 4 -10 -6 0 -10 -12 -19 -30
-23 -16 -4 -30 -11 -30 -15 0 -5 -7 -7 -15 -3 -9 3 -15 1 -13 -3 2 -5 -15 -26
-37 -47 -41 -40 -33 -40 20 -1 17 12 50 32 74 44 43 21 45 21 58 4 7 -10 13
-20 13 -23 -1 -3 -33 -21 -72 -39 -39 -18 -68 -35 -65 -38 3 -3 20 2 39 12 29
15 31 15 20 1 -8 -9 -11 -21 -7 -27 3 -5 -14 -34 -39 -64 -50 -57 -55 -69 -29
-59 11 4 14 3 9 -6 -5 -7 -14 -10 -21 -7 -12 4 -65 -52 -65 -69 0 -4 -10 -21
-22 -37 -12 -17 -17 -29 -12 -26 78 37 112 51 124 52 8 0 29 11 47 24 17 12
34 22 37 22 4 0 4 -10 2 -22 -3 -13 -7 -51 -10 -86 -4 -58 -3 -62 14 -57 13 4
20 0 25 -16 l7 -21 12 22 c6 13 22 29 36 38 18 10 21 10 10 1 -8 -8 -23 -29
-34 -48 l-18 -33 24 16 c14 9 28 13 31 9 4 -3 7 -1 7 5 0 6 7 9 16 5 9 -3 14
-13 11 -24 -3 -13 0 -19 11 -19 12 0 10 -6 -9 -27 -17 -20 -18 -23 -3 -10 33
28 51 21 23 -9 l-24 -27 23 6 c26 6 29 -5 7 -23 -11 -9 -13 -16 -5 -24 7 -7
19 -1 40 19 33 31 54 27 25 -5 -10 -11 -14 -20 -9 -20 12 0 37 39 41 63 2 12
-1 16 -9 11 -7 -4 -8 -3 -4 5 4 6 9 25 11 42 4 27 2 30 -15 26 -11 -3 -18 -1
-14 4 3 5 10 9 16 9 7 0 22 10 35 22 13 12 23 16 23 10 0 -7 -4 -12 -9 -12
-11 0 14 -53 38 -83 53 -66 73 -72 113 -29 34 34 48 72 48 124 0 37 2 40 23
33 12 -4 47 -11 77 -15 30 -4 45 -8 32 -9 -13 0 -21 -5 -17 -10 3 -5 -3 -11
-12 -13 -10 -3 7 -8 36 -12 52 -8 56 -7 76 18 11 14 24 26 29 26 7 0 0 -84
-10 -123 -4 -13 0 -16 18 -14 27 5 30 19 29 148 0 76 -8 116 -36 181 -6 15 -3
16 32 6 61 -17 95 -37 149 -90 46 -44 51 -54 44 -77 -9 -34 -47 -108 -73 -144
l-20 -29 22 14 c12 7 31 28 43 46 11 18 23 31 26 28 3 -3 -9 -28 -26 -56 -17
-27 -27 -52 -22 -55 10 -6 13 -1 85 124 69 123 69 133 -4 279 -34 67 -59 122
-56 122 3 0 31 -53 64 -117 44 -88 60 -112 64 -98 13 42 27 193 27 286 0 86
-4 109 -39 210 -69 203 -230 613 -238 606 -1 -2 27 -118 62 -258 71 -281 92
-396 77 -411 -6 -6 -8 -16 -5 -23 3 -10 -4 -11 -32 -5 -20 5 -38 10 -40 12 -2
1 -37 64 -79 139 -56 100 -76 147 -77 175 -1 32 -2 35 -8 14 -5 -20 -22 11
-88 170 -162 386 -203 518 -203 647 0 50 6 89 21 125 32 80 79 215 79 225 -1
4 -8 -5 -16 -22 -8 -16 -12 -22 -9 -12 3 11 8 30 11 44 l7 25 12 -29 c7 -15
20 -77 29 -136 10 -60 30 -154 46 -210 27 -98 99 -282 106 -274 2 2 -3 52 -11
113 -27 206 -67 799 -63 934 1 58 2 59 5 15 17 -265 95 -663 177 -900 41 -119
46 -99 11 40 -29 113 -65 324 -64 370 0 17 9 -24 19 -91 18 -118 65 -323 77
-334 3 -3 3 22 -1 55 -7 55 -26 687 -22 692 2 2 17 -50 35 -115 18 -64 41
-144 51 -177 10 -33 30 -105 45 -160 15 -55 43 -140 62 -190 34 -87 95 -273
133 -405 10 -36 19 -58 19 -50 1 15 -27 131 -80 328 -17 63 -28 116 -26 118 2
3 17 -43 32 -101 16 -58 30 -103 32 -101 2 2 -3 80 -11 172 -8 93 -18 241 -21
329 -12 300 -73 672 -140 840 -6 15 -5 17 3 10 18 -16 124 -266 180 -420 49
-138 115 -360 168 -565 l27 -105 1 -555 c1 -305 4 -571 9 -590 l7 -35 -10 35
c-6 19 -18 64 -27 100 -13 51 -18 60 -25 45 -7 -16 -8 -14 -4 8 2 15 1 25 -3
22 -3 -4 -11 20 -18 52 -15 72 -11 20 10 -127 32 -219 48 -525 30 -544 -4 -4
-6 -24 -5 -44 3 -49 -37 -240 -78 -375 -18 -59 -35 -106 -36 -104 -2 2 3 44
11 93 26 156 27 261 11 599 -26 517 -72 1013 -92 992 -3 -2 2 -60 11 -128 10
-86 15 -214 15 -420 l0 -297 -22 5 c-20 4 -19 2 5 -12 23 -14 27 -22 27 -64 0
-26 2 -84 5 -127 l5 -79 -27 118 c-14 64 -28 115 -31 112 -3 -3 -9 -51 -13
-107 -4 -57 -13 -131 -19 -164 -10 -52 -9 -66 4 -92 9 -17 16 -35 16 -39 -1
-4 -9 7 -18 25 l-18 32 -28 -117 c-96 -397 -253 -684 -543 -995 l-87 -93 98
95 c262 254 417 527 534 940 22 75 -8 -302 -38 -487 -20 -121 -46 -184 -208
-498 -109 -211 -228 -345 -457 -514 -38 -28 -76 -56 -83 -62 -74 -61 -335
-220 -487 -297 -408 -206 -468 -229 -537 -202 -180 70 -524 257 -740 401 -253
169 -453 344 -539 470 -53 79 -152 285 -219 459 -29 74 -61 153 -71 175 -28
65 -101 211 -95 194 4 -14 1 -15 -20 -5 -18 8 -23 17 -19 31 2 11 5 31 5 44 0
21 5 19 42 -25 24 -27 64 -71 91 -99 l47 -50 -31 70 c-46 103 -109 282 -109
310 0 35 21 125 28 124 4 0 29 -27 56 -60 27 -32 51 -57 54 -55 2 3 -12 31
-32 63 -19 32 -38 72 -42 90 -6 29 -2 33 45 66 28 19 122 112 208 208 l158
174 -34 3 c-19 2 -37 -1 -40 -6 -6 -9 -101 -23 -101 -15 0 3 14 29 32 58 l31
52 185 23 c101 12 196 19 211 16 20 -5 23 -4 11 5 -11 8 -4 9 30 5 26 -4 40
-3 32 2 -8 6 3 9 30 9 66 1 205 53 271 102 32 23 60 41 62 39 2 -1 -2 -43 -9
-93 l-11 -90 -50 -32 c-28 -18 -67 -45 -89 -60 -21 -16 -43 -27 -48 -25 -5 1
-7 -2 -3 -8 3 -5 -38 -38 -92 -73 -123 -80 -173 -110 -173 -104 0 2 54 39 120
82 124 79 164 113 89 75 -54 -28 -84 -31 -123 -14 -30 14 -29 14 24 8 78 -9
53 12 -30 25 -36 6 -69 11 -73 11 -5 0 -5 6 -1 13 5 9 4 9 -5 1 -9 -8 -46 -10
-115 -7 -91 5 -105 3 -125 -13 -43 -36 -251 -278 -244 -283 5 -3 8 -53 8 -111
0 -121 15 -176 45 -160 9 5 20 7 23 4 3 -3 15 -1 26 6 12 6 21 7 21 1 0 -5 -7
-12 -16 -15 -12 -5 -13 -8 -2 -20 7 -8 18 -11 23 -8 6 3 4 -1 -3 -10 -10 -12
-9 -18 3 -28 8 -7 13 -16 10 -20 -6 -10 24 -22 36 -15 5 4 6 -2 2 -12 -4 -10
19 8 50 40 58 58 77 68 77 43 0 -14 -70 -73 -82 -69 -4 2 -5 -5 -2 -15 4 -13
3 -14 -4 -4 -8 11 -10 11 -15 -1 -4 -10 0 -14 11 -12 9 1 21 -3 25 -9 6 -7 7
-5 4 5 -5 17 49 79 69 79 5 0 17 -9 27 -20 19 -22 57 -26 89 -9 30 16 47 68
43 127 -4 52 -3 52 32 67 52 22 62 18 28 -11 -29 -24 -25 -26 20 -8 17 7 18 6
7 -8 -11 -14 -10 -18 10 -29 22 -12 22 -12 3 -20 -18 -7 -18 -8 -2 -8 10 -1
15 -6 12 -11 -8 -13 25 -26 34 -13 3 6 13 13 21 16 11 4 10 6 -5 7 -17 2 -16
3 5 10 24 7 24 7 -10 18 l-35 10 50 1 c36 1 46 4 35 11 -13 8 -12 10 4 10 12
0 16 5 13 14 -3 8 -1 17 6 20 7 2 1 5 -12 5 l-24 1 23 20 c13 11 20 20 16 20
-4 0 -4 5 0 11 11 19 24 -12 25 -61 1 -38 2 -41 9 -20 7 21 8 18 9 -20 1 -33
4 -41 11 -30 24 38 1 175 -41 249 -11 18 -18 35 -16 37 1 2 16 -4 32 -12 17
-8 39 -13 50 -11 22 6 157 55 162 60 1 2 5 82 8 178 10 307 67 591 175 868 47
121 132 291 174 351 66 92 39 71 -148 -120 -383 -389 -531 -559 -706 -810 -41
-58 -74 -106 -75 -108 -3 -4 -219 -41 -222 -38 -1 1 26 56 61 122 35 65 112
210 171 322 93 174 122 219 202 312 112 132 330 365 444 475 69 67 76 72 43
30 -43 -55 -37 -52 78 36 40 31 125 95 188 142 63 48 149 114 190 147 228 186
478 351 849 561 135 77 260 154 277 170 36 35 184 87 184 65z m79 -371 c30
-342 33 -440 6 -190 -23 217 -40 450 -30 430 2 -5 13 -113 24 -240z m-3685
119 l71 -22 -47 -1 c-52 -1 -260 32 -298 48 -53 22 200 -1 274 -25z m3663
-206 c-3 -7 -5 -2 -5 12 0 14 2 19 5 13 2 -7 2 -19 0 -25z m10 -80 c-2 -13 -4
-5 -4 17 -1 22 1 32 4 23 2 -10 2 -28 0 -40z m-137 -134 c-12 -53 -24 -94 -26
-92 -2 3 6 50 19 106 12 57 24 97 26 91 2 -6 -7 -53 -19 -105z m147 29 c-2
-16 -4 -5 -4 22 0 28 2 40 4 28 2 -13 2 -35 0 -50z m10 -145 c-2 -18 -4 -4 -4
32 0 36 2 50 4 33 2 -18 2 -48 0 -65z m-193 -22 c-3 -15 -8 -25 -11 -23 -2 3
-1 17 3 31 3 15 8 25 11 23 2 -3 1 -17 -3 -31z m223 -53 c-2 -16 -4 -5 -4 22
0 28 2 40 4 28 2 -13 2 -35 0 -50z m240 -115 c-3 -8 -6 -5 -6 6 -1 11 2 17 5
13 3 -3 4 -12 1 -19z m-526 -15 c-12 -20 -14 -14 -5 12 4 9 9 14 11 11 3 -2 0
-13 -6 -23z m546 -55 c-3 -8 -6 -5 -6 6 -1 11 2 17 5 13 3 -3 4 -12 1 -19z
m20 -70 c-3 -8 -6 -5 -6 6 -1 11 2 17 5 13 3 -3 4 -12 1 -19z m20 -70 c-3 -8
-6 -5 -6 6 -1 11 2 17 5 13 3 -3 4 -12 1 -19z m10 -40 c-3 -8 -6 -5 -6 6 -1
11 2 17 5 13 3 -3 4 -12 1 -19z m-4964 -165 c-7 -2 -19 -2 -25 0 -7 3 -2 5 12
5 14 0 19 -2 13 -5z m3447 -16 c0 -2 -19 -21 -42 -42 l-43 -40 40 43 c36 39
45 47 45 39z m-682 -388 c-30 -95 -68 -243 -88 -340 -9 -48 -15 -59 -40 -69
-16 -6 -31 -19 -34 -27 -4 -8 -13 -13 -21 -9 -8 3 -14 0 -12 -6 4 -21 -111
-58 -256 -82 -129 -22 -256 -39 -215 -29 9 2 15 10 12 16 -2 7 28 44 67 82 43
41 64 58 53 40 -14 -22 1 -13 56 35 104 91 340 313 430 404 41 42 75 76 76 76
1 0 -11 -41 -28 -91z m856 -3 c-7 -19 -34 -29 -34 -12 0 7 3 16 7 19 12 13 32
7 27 -7z m-1532 -88 c-16 -29 -72 -134 -125 -233 -154 -290 -138 -268 -202
-281 -30 -6 -55 -8 -55 -4 0 21 391 570 407 570 3 0 -8 -24 -25 -52z m3137
-433 c-2 -17 -27 69 -27 90 0 11 6 -2 14 -30 7 -27 13 -54 13 -60z m531 35 c0
-24 -26 -38 -42 -22 -16 16 -2 42 22 42 13 0 20 -7 20 -20z m-280 -29 c0 -11
-5 -23 -11 -27 -15 -9 -33 12 -26 30 9 23 37 20 37 -3z m47 -13 c-3 -8 -6 -5
-6 6 -1 11 2 17 5 13 3 -3 4 -12 1 -19z m-290 -30 c-3 -8 -6 -5 -6 6 -1 11 2
17 5 13 3 -3 4 -12 1 -19z m-3204 -15 c-7 -2 -21 -2 -30 0 -10 3 -4 5 12 5 17
0 24 -2 18 -5z m2540 0 c-7 -2 -19 -2 -25 0 -7 3 -2 5 12 5 14 0 19 -2 13 -5z
m-2606 -9 c-3 -3 -12 -4 -19 -1 -8 3 -5 6 6 6 11 1 17 -2 13 -5z m2750 0 c-3
-3 -12 -4 -19 -1 -8 3 -5 6 6 6 11 1 17 -2 13 -5z m612 -248 c1 -5 -1 -7 -4
-4 -7 7 -65 231 -64 248 1 14 67 -223 68 -244z m-685 233 l93 -12 26 -44 c15
-24 27 -48 27 -53 0 -6 5 -10 11 -10 5 0 8 -4 5 -9 -4 -5 -2 -11 4 -13 5 -1 6
-9 2 -15 -6 -9 -28 -5 -87 18 -53 21 -96 31 -134 31 -31 0 -68 2 -83 5 l-27 4
27 55 c14 30 30 54 35 54 4 0 50 -5 101 -11z m179 -6 c-7 -2 -19 -2 -25 0 -7
3 -2 5 12 5 14 0 19 -2 13 -5z m53 -73 c27 -88 8 -83 -47 13 l-21 39 27 -4
c23 -2 30 -10 41 -48z m-2236 20 c0 -5 -5 -10 -11 -10 -5 0 -7 5 -4 10 3 6 8
10 11 10 2 0 4 -4 4 -10z m-1090 -14 c0 -15 -84 -156 -93 -156 -5 0 -8 -3 -4
-6 3 -4 -5 -28 -19 -55 -19 -39 -30 -49 -49 -49 l-25 0 26 58 c78 178 85 189
117 200 38 12 47 13 47 8z m1060 -4 c0 -5 -17 -16 -37 -26 -41 -19 -39 -13 4
15 34 21 33 21 33 11z m-1949 -59 c-29 -54 -132 -125 -285 -199 -111 -53 -285
-118 -294 -109 -5 5 -6 4 156 68 144 58 285 136 364 203 72 60 72 60 59 37z
m1486 11 c-3 -3 -12 -4 -19 -1 -8 3 -5 6 6 6 11 1 17 -2 13 -5z m89 -12 c-5
-8 -66 -4 -66 4 0 2 16 4 36 4 19 0 33 -4 30 -8z m-1229 -54 c-3 -8 -6 -5 -6
6 -1 11 2 17 5 13 3 -3 4 -12 1 -19z m743 18 c0 -2 -11 -6 -25 -8 -13 -3 -22
-1 -19 3 5 9 44 13 44 5z m-154 -34 c-18 -16 -18 -16 -6 6 6 13 14 21 18 18 3
-4 -2 -14 -12 -24z m3653 -104 c1 -20 -3 -40 -9 -43 -6 -4 -10 19 -9 62 1 49
3 61 9 43 4 -14 8 -42 9 -62z m-3642 10 c-3 -7 -5 -2 -5 12 0 14 2 19 5 13 2
-7 2 -19 0 -25z m4020 0 c18 -18 33 -40 33 -51 0 -10 5 -15 10 -12 12 7 40
-53 40 -85 0 -12 4 -19 9 -16 7 5 3 -83 -5 -93 -2 -2 -15 6 -30 18 -52 41
-146 47 -189 11 -11 -9 -17 -5 -30 19 -24 47 -66 43 -150 -14 l-67 -45 6 78
c9 95 16 102 171 171 133 60 158 62 202 19z m-4537 -47 c0 -9 -12 -52 -25 -96
l-25 -80 6 80 c7 105 12 125 30 118 8 -3 14 -13 14 -22z m1015 -1 c3 -11 3
-24 0 -30 -3 -5 1 -10 9 -10 9 0 13 -6 10 -14 -6 -16 -54 -40 -54 -26 0 5 -7
7 -15 4 -20 -8 -45 13 -45 39 0 49 81 81 95 37z m3189 -5 c-10 -8 -23 -14 -29
-14 -5 0 -1 6 9 14 11 8 24 15 30 15 5 0 1 -7 -10 -15z m-3784 -19 c0 -2 -8
-10 -17 -17 -16 -13 -17 -12 -4 4 13 16 21 21 21 13z m3567 -18 c-3 -8 -6 -5
-6 6 -1 11 2 17 5 13 3 -3 4 -12 1 -19z m166 7 c-3 -9 -8 -14 -10 -11 -3 3 -2
9 2 15 9 16 15 13 8 -4z m-3869 -13 c3 -5 -13 -56 -36 -113 -22 -57 -49 -140
-58 -184 -10 -44 -37 -125 -60 -180 -49 -119 -80 -241 -79 -310 2 -48 2 -47
10 18 4 37 19 105 34 151 21 65 32 86 51 95 34 15 68 14 109 -3 43 -18 46 -12
5 9 -34 17 -83 20 -111 5 -10 -6 -19 -7 -19 -3 0 4 22 53 48 108 l48 99 37
-67 c20 -37 36 -72 34 -77 -1 -5 6 -15 16 -22 14 -11 16 -22 11 -60 -6 -43 -8
-46 -26 -37 -27 15 -35 3 -9 -13 19 -11 21 -22 21 -102 l0 -88 -32 6 c-18 3
-60 24 -93 47 -59 39 -59 40 -20 5 21 -19 60 -44 86 -56 43 -21 47 -26 53 -68
7 -55 8 -132 1 -132 -15 0 -165 63 -170 71 -9 14 -27 11 -19 -3 4 -8 3 -10 -2
-5 -5 5 -9 12 -9 15 0 4 -21 27 -47 52 l-47 45 15 80 c8 44 33 134 54 200 21
66 41 138 44 160 5 33 65 210 115 338 10 26 34 36 45 19z m3259 -9 c-7 -2 -21
-2 -30 0 -10 3 -4 5 12 5 17 0 24 -2 18 -5z m-3476 -25 c-3 -8 -6 -5 -6 6 -1
11 2 17 5 13 3 -3 4 -12 1 -19z m2771 -28 c-2 -47 -18 -66 -18 -21 0 29 8 61
16 61 2 0 3 -18 2 -40z m-1522 3 c3 -20 -13 -43 -29 -43 -6 0 -2 7 9 16 13 10
15 17 7 20 -7 3 -9 12 -6 20 6 17 16 11 19 -13z m2824 -112 c-6 -47 -25 -153
-41 -235 -16 -82 -28 -150 -26 -153 3 -2 15 37 27 87 l22 91 51 -3 c52 -3 58
-8 78 -63 15 -41 23 -14 9 30 -15 45 -41 59 -94 51 l-42 -7 16 93 16 93 74 43
c41 23 84 42 95 42 25 0 57 -51 49 -77 -5 -15 -4 -16 5 -3 9 12 10 7 6 -21 -6
-32 -4 -37 17 -42 12 -4 37 -7 54 -7 37 0 58 -21 78 -78 13 -35 13 -47 2 -73
l-13 -32 -28 51 c-35 64 -67 80 -119 58 -43 -18 -86 -62 -86 -87 0 -11 13 -25
31 -34 34 -18 59 -67 59 -115 0 -18 4 -29 10 -25 30 19 -5 128 -50 153 -37 21
-38 44 -5 71 63 49 110 35 146 -44 40 -86 15 -175 -51 -190 -22 -5 -36 -17
-50 -45 -10 -20 -31 -51 -45 -68 -16 -19 -23 -37 -19 -44 4 -7 4 -10 -1 -6 -4
4 -41 -24 -83 -62 -41 -38 -93 -78 -116 -88 -37 -18 -195 -56 -202 -49 -2 1
15 52 37 112 22 61 43 121 46 135 3 14 18 70 34 125 52 182 99 389 103 455 7
98 8 109 13 76 3 -15 -1 -67 -7 -115z m-900 124 c0 -2 -10 -9 -22 -15 -22 -11
-22 -10 -4 4 21 17 26 19 26 11z m-3183 -27 c-3 -8 -6 -5 -6 6 -1 11 2 17 5
13 3 -3 4 -12 1 -19z m817 -13 c-15 -23 -34 -33 -34 -18 0 9 33 42 43 42 4 1
0 -10 -9 -24z m66 12 c0 -2 -10 -12 -22 -23 l-23 -19 19 23 c18 21 26 27 26
19z m2148 -19 c-6 -17 -36 -34 -45 -24 -4 4 1 14 11 22 24 17 39 18 34 2z
m-2722 -38 c26 -39 27 -42 14 -98 l-13 -57 -18 70 c-18 67 -24 125 -14 125 3
0 17 -18 31 -40z m4281 -37 c-2 -16 -4 -3 -4 27 0 30 2 43 4 28 2 -16 2 -40 0
-55z m-5337 48 c0 -12 -20 -25 -27 -18 -7 7 6 27 18 27 5 0 9 -4 9 -9z m1815
-16 c-16 -14 -36 -25 -44 -25 -17 0 -11 7 26 31 41 26 53 22 18 -6z m2780 -50
c4 -27 11 -55 16 -61 4 -5 15 -84 24 -175 9 -90 18 -171 20 -180 8 -26 -178
-479 -192 -465 -3 3 -1 30 5 58 41 187 68 385 82 611 15 241 21 292 30 277 5
-8 12 -37 15 -65z m-3175 62 c0 -2 -19 -21 -42 -42 l-43 -40 40 43 c36 39 45
47 45 39z m2798 -4 c-15 -2 -42 -2 -60 0 -18 2 -6 4 27 4 33 0 48 -2 33 -4z
m1036 -21 c44 -26 68 -65 74 -120 4 -42 1 -52 -19 -71 -12 -11 -28 -21 -35
-21 -6 0 -23 24 -37 54 -30 63 -49 76 -107 76 l-41 0 4 42 c3 35 9 44 33 55
34 15 87 9 128 -15z m-4217 -241 l-13 -65 -47 91 -48 92 38 70 38 70 23 -97
c20 -88 21 -101 9 -161z m333 250 c0 -5 -7 -12 -16 -15 -14 -5 -15 -4 -4 9 14
17 20 19 20 6z m33 -43 c-29 -29 -55 -49 -59 -45 -4 4 -5 8 -3 10 2 1 25 21
51 45 66 59 73 53 11 -10z m3217 17 c0 -5 -5 -3 -10 5 -5 8 -10 20 -10 25 0 6
5 3 10 -5 5 -8 10 -19 10 -25z m-955 15 c-3 -5 -12 -10 -18 -10 -7 0 -6 4 3
10 19 12 23 12 15 0z m105 0 c0 -5 -5 -10 -11 -10 -5 0 -7 5 -4 10 3 6 8 10
11 10 2 0 4 -4 4 -10z m-1863 -6 c-3 -3 -12 -4 -19 -1 -8 3 -5 6 6 6 11 1 17
-2 13 -5z m1713 -4 c0 -5 -5 -10 -11 -10 -5 0 -7 5 -4 10 3 6 8 10 11 10 2 0
4 -4 4 -10z m-2160 -4 c0 -2 -8 -10 -17 -17 -16 -13 -17 -12 -4 4 13 16 21 21
21 13z m3180 -51 c0 -5 -5 -3 -10 5 -5 8 -10 20 -10 25 0 6 5 3 10 -5 5 -8 10
-19 10 -25z m-3245 -5 c-16 -16 -32 -30 -37 -30 -8 0 53 59 61 60 3 0 -8 -13
-24 -30z m510 20 c-11 -5 -27 -9 -35 -9 -13 -1 -13 0 0 9 8 5 24 9 35 9 l20 0
-20 -9z m1792 -6 c-3 -3 -12 -4 -19 -1 -8 3 -5 6 6 6 11 1 17 -2 13 -5z
m-2277 -17 c0 -2 -10 -12 -22 -23 l-23 -19 19 23 c18 21 26 27 26 19z m2315
-27 c-3 -5 -11 -10 -16 -10 -6 0 -7 5 -4 10 3 6 11 10 16 10 6 0 7 -4 4 -10z
m-2290 -30 c-3 -5 -12 -10 -18 -10 -7 0 -6 4 3 10 19 12 23 12 15 0z m110 -30
c-3 -5 -16 -15 -28 -21 -22 -12 -22 -12 -3 10 19 21 43 30 31 11z m-471 -117
c10 -32 34 -92 52 -132 34 -73 34 -74 9 -51 -14 13 -44 48 -67 77 -39 51 -40
54 -33 108 3 30 10 55 14 55 4 0 15 -26 25 -57z m2 -286 c37 -71 46 -97 31
-92 -7 1 -33 9 -59 15 l-48 13 0 47 c0 26 3 62 7 80 l6 33 19 -24 c10 -13 30
-46 44 -72z m-35 -105 c59 -40 139 -130 158 -180 l20 -51 -42 13 c-146 45
-159 51 -168 74 -11 28 -12 162 -1 162 4 0 19 -8 33 -18z m3409 -137 c0 -15
-6 -25 -15 -25 -12 0 -13 4 -3 25 6 14 13 25 15 25 1 0 3 -11 3 -25z m250 -25
c0 -5 -2 -10 -4 -10 -3 0 -8 5 -11 10 -3 6 -1 10 4 10 6 0 11 -4 11 -10z
m-263 -26 c-3 -3 -12 -4 -19 -1 -8 3 -5 6 6 6 11 1 17 -2 13 -5z m43 -91 c-49
-92 -65 -111 -54 -68 7 33 84 158 92 151 2 -3 -15 -40 -38 -83z m50 -3 c-6
-11 -13 -20 -16 -20 -2 0 0 9 6 20 6 11 13 20 16 20 2 0 0 -9 -6 -20z m-40
-64 c0 -2 -8 -10 -17 -17 -16 -13 -17 -12 -4 4 13 16 21 21 21 13z m-2954
-610 c46 -90 94 -217 94 -248 0 -16 -10 -18 -80 -18 l-80 0 0 68 c0 101 -23
242 -66 407 -9 33 84 -113 132 -209z m275 -252 c10 -12 -3 -14 -81 -14 l-93 0
7 46 c3 26 6 60 6 76 l0 29 75 -61 c41 -34 80 -68 86 -76z m219 56 c-8 -5 -19
-10 -25 -10 -5 0 -3 5 5 10 8 5 20 10 25 10 6 0 3 -5 -5 -10z m30 -25 c-14
-17 -1 -26 24 -14 20 10 20 9 2 -5 -16 -13 -21 -13 -41 0 -20 13 -24 13 -35
-1 -17 -21 -5 -31 17 -14 16 12 15 11 -1 -8 -22 -26 -32 -23 -38 11 -5 27 18
43 60 43 16 0 20 -3 12 -12z m99 -49 c-23 -17 -119 -65 -114 -57 9 15 -8 14
-23 -1 -8 -8 -12 -8 -12 -1 0 6 7 14 16 17 8 3 12 10 9 16 -4 6 1 7 11 3 11
-4 15 -3 10 5 -3 6 -2 13 3 17 6 3 8 -3 6 -15 -4 -21 9 -27 21 -9 12 19 69 49
73 38 1 -6 1 -11 0 -13z m36 -6 c-3 -6 -21 -17 -38 -26 -36 -19 -31 -9 10 17
34 21 36 22 28 9z m1535 -27 c0 -5 -7 -17 -15 -27 -14 -19 -15 -19 -15 7 0 17
5 27 15 27 8 0 15 -3 15 -7z m-1468 -14 c-16 -14 -202 -107 -197 -98 9 13 -9
11 -23 -3 -7 -7 -12 -8 -12 -2 0 6 12 16 26 22 18 9 23 9 18 1 -4 -7 -1 -10 7
-7 8 3 13 11 11 17 -1 7 2 10 7 7 5 -4 37 11 71 33 34 22 70 39 80 38 11 -1
16 -4 12 -8z m-92 -4 c0 -2 -13 -11 -30 -20 -38 -19 -40 -11 -2 9 31 17 32 18
32 11z m130 -13 c0 -4 -48 -31 -107 -61 -126 -62 -125 -54 2 18 90 51 105 58
105 43z m-255 -42 c-3 -5 -12 -10 -18 -10 -7 0 -6 4 3 10 19 12 23 12 15 0z
m335 -5 c0 -3 -68 -39 -151 -80 -83 -42 -148 -71 -144 -64 5 7 3 10 -6 7 -8
-3 -13 -10 -12 -16 2 -6 -4 -9 -12 -6 -26 10 -17 19 51 52 36 18 63 28 59 22
-9 -14 1 -13 36 5 16 9 27 20 24 25 -4 6 1 7 11 3 12 -4 15 -3 10 5 -4 7 -2
10 6 7 7 -3 31 6 53 19 37 22 75 33 75 21z m40 -23 c0 -4 -84 -49 -187 -100
-104 -51 -179 -85 -168 -77 11 9 19 21 17 26 -1 6 2 8 7 5 5 -3 76 30 158 74
142 76 173 89 173 72z m59 -36 c-9 -8 -93 -48 -87 -41 15 16 63 44 77 44 8 1
12 -1 10 -3z m-359 -11 c0 -2 -18 -14 -40 -25 -22 -11 -40 -18 -40 -15 0 2 17
13 38 24 42 23 42 23 42 16z m1720 -40 c-24 -25 -46 -45 -49 -45 -3 0 15 20
39 45 24 25 46 45 49 45 3 0 -15 -20 -39 -45z m-1316 26 c3 -5 -8 -14 -24 -21
-16 -7 -27 -16 -24 -21 3 -5 -3 -6 -12 -2 -13 5 -15 3 -9 -7 5 -8 4 -11 -3 -6
-6 3 -45 -9 -87 -28 -41 -20 -73 -31 -70 -26 11 18 -7 10 -102 -46 -94 -56
-133 -71 -133 -53 0 8 14 11 36 8 4 0 10 4 13 9 3 5 50 33 104 61 53 29 95 57
92 62 -4 5 2 6 11 2 11 -4 15 -3 10 5 -3 6 3 16 15 22 15 8 19 9 15 1 -9 -14
0 -14 25 -1 10 6 19 8 19 6 0 -3 -18 -15 -41 -26 -23 -12 -39 -24 -36 -26 8
-9 117 57 111 67 -3 5 3 6 12 2 12 -4 15 -3 10 5 -4 8 -2 10 7 6 8 -3 18 -1
22 5 8 13 32 14 39 2z m35 -25 c-2 -2 -15 -9 -29 -15 -24 -11 -24 -11 -6 3 16
13 49 24 35 12z m71 -33 c-8 -3 -32 -14 -52 -25 -21 -10 -38 -16 -38 -13 0 8
74 44 90 44 13 -1 13 -1 0 -6z m-410 -7 c0 -2 -26 -19 -57 -38 -32 -19 -70
-42 -85 -52 -22 -14 -28 -15 -28 -4 0 7 37 32 83 55 90 46 87 45 87 39z m450
-6 c0 -5 -8 -10 -17 -10 -15 0 -16 2 -3 10 19 12 20 12 20 0z m-330 -51 c-24
-16 -149 -79 -157 -79 -11 0 150 89 162 90 6 0 3 -5 -5 -11z m-1133 -261 c-3
-8 -6 -5 -6 6 -1 11 2 17 5 13 3 -3 4 -12 1 -19z m543 -2 c0 -2 -24 -23 -52
-46 l-53 -42 48 46 c46 43 57 51 57 42z m308 -48 c-3 -16 -1 -31 4 -34 11 -7
10 -114 -1 -114 -12 0 -157 -125 -255 -219 -99 -95 -52 -37 111 137 69 72 120
132 115 132 -11 0 -82 -61 -192 -164 -41 -39 -13 -8 63 69 187 191 181 203
-18 40 -55 -45 -134 -113 -175 -151 l-75 -69 65 74 c88 100 342 341 353 334 5
-3 7 -19 5 -35z m12 -220 l0 -53 -73 -57 c-39 -31 -92 -73 -117 -93 -25 -20
-1 6 53 57 87 84 113 118 89 118 -4 0 -57 -41 -117 -91 l-110 -90 134 130 c74
72 136 131 138 131 2 0 3 -24 3 -52z m-490 -31 c0 -2 -12 -14 -27 -28 l-28
-24 24 28 c23 25 31 32 31 24z m3521 -104 c-8 -15 -10 -15 -11 -2 0 17 10 32
18 25 2 -3 -1 -13 -7 -23z m-3147 -105 c-22 -27 -36 -38 -47 -38 -7 0 54 59
62 60 2 0 -4 -10 -15 -22z m-232 -91 c-23 -24 -42 -51 -42 -62 0 -16 -4 -15
-30 10 l-30 29 22 23 c24 26 40 30 32 8 -10 -26 21 -17 51 15 16 16 31 27 34
25 2 -3 -14 -25 -37 -48z m87 17 c-13 -14 -33 -30 -44 -35 -11 -6 -2 6 20 25
47 42 58 47 24 10z m-158 -91 c13 -16 12 -17 -3 -4 -17 13 -22 21 -14 21 2 0
10 -8 17 -17z"/>
<path d="M6831 5154 c0 -11 3 -14 6 -6 3 7 2 16 -1 19 -3 4 -6 -2 -5 -13z"/>
<path d="M6841 5114 c0 -11 3 -14 6 -6 3 7 2 16 -1 19 -3 4 -6 -2 -5 -13z"/>
<path d="M6851 5074 c0 -11 3 -14 6 -6 3 7 2 16 -1 19 -3 4 -6 -2 -5 -13z"/>
<path d="M6861 5024 c0 -11 3 -14 6 -6 3 7 2 16 -1 19 -3 4 -6 -2 -5 -13z"/>
<path d="M6872 4980 c0 -14 2 -19 5 -12 2 6 2 18 0 25 -3 6 -5 1 -5 -13z"/>
<path d="M4283 5363 c-129 -104 -157 -130 -199 -185 -24 -31 -44 -58 -44 -60
0 -3 35 30 78 72 42 42 112 108 156 148 43 40 75 72 72 72 -3 0 -31 -21 -63
-47z"/>
<path d="M4549 5333 c-13 -16 -12 -17 4 -4 16 13 21 21 13 21 -2 0 -10 -8 -17
-17z"/>
<path d="M4809 5333 c-13 -16 -12 -17 4 -4 16 13 21 21 13 21 -2 0 -10 -8 -17
-17z"/>
<path d="M4752 5253 c-47 -71 -54 -83 -49 -83 2 0 25 32 51 70 25 39 44 70 41
70 -2 0 -22 -26 -43 -57z"/>
<path d="M6113 5210 c0 -41 2 -58 4 -37 2 20 2 54 0 75 -2 20 -4 3 -4 -38z"/>
<path d="M4598 5017 c-26 -53 -35 -84 -29 -94 6 -12 10 -9 15 13 4 16 19 55
33 86 39 88 23 84 -19 -5z"/>
<path d="M4507 4847 c-161 -304 -279 -613 -327 -862 -11 -60 -26 -112 -32
-116 -8 -5 -6 -12 5 -24 16 -15 17 -15 17 2 0 14 2 15 9 5 10 -17 37 -4 169
80 l92 60 0 125 0 125 -27 -18 c-64 -42 -183 -114 -188 -114 -18 0 22 36 113
104 56 42 102 70 103 63 0 -6 5 3 10 21 5 18 14 30 20 27 23 -15 548 442 632
550 17 22 -13 -4 -68 -57 -115 -112 -262 -235 -434 -363 -66 -50 -120 -97
-121 -104 0 -22 -18 0 -23 29 -4 21 -4 20 -6 -7 -1 -28 -12 -40 -98 -102 -54
-38 -99 -68 -101 -67 -1 2 16 56 38 121 49 141 141 351 216 494 30 57 53 105
50 108 -2 2 -24 -34 -49 -80z"/>
<path d="M6113 4770 c0 -47 2 -66 4 -42 2 23 2 61 0 85 -2 23 -4 4 -4 -43z"/>
<path d="M4541 4824 c0 -11 3 -14 6 -6 3 7 2 16 -1 19 -3 4 -6 -2 -5 -13z"/>
<path d="M4521 4754 c0 -11 3 -14 6 -6 3 7 2 16 -1 19 -3 4 -6 -2 -5 -13z"/>
<path d="M4511 4714 c0 -11 3 -14 6 -6 3 7 2 16 -1 19 -3 4 -6 -2 -5 -13z"/>
<path d="M6103 4620 c0 -25 2 -35 4 -22 2 12 2 32 0 45 -2 12 -4 2 -4 -23z"/>
<path d="M4482 4570 c0 -14 2 -19 5 -12 2 6 2 18 0 25 -3 6 -5 1 -5 -13z"/>
<path d="M6093 4525 c0 -22 2 -30 4 -17 2 12 2 30 0 40 -3 9 -5 -1 -4 -23z"/>
<path d="M6622 4530 c0 -19 2 -27 5 -17 2 9 2 25 0 35 -3 9 -5 1 -5 -18z"/>
<path d="M4472 4515 c0 -16 2 -22 5 -12 2 9 2 23 0 30 -3 6 -5 -1 -5 -18z"/>
<path d="M4462 4450 c0 -19 2 -27 5 -17 2 9 2 25 0 35 -3 9 -5 1 -5 -18z"/>
<path d="M6051 4304 c0 -11 3 -14 6 -6 3 7 2 16 -1 19 -3 4 -6 -2 -5 -13z"/>
<path d="M5140 4280 c34 -29 95 -57 188 -84 79 -24 191 -44 142 -26 -32 12 65
5 295 -21 175 -20 212 -22 204 -15 -2 3 -119 19 -259 36 -274 33 -393 53 -260
44 41 -3 174 -19 295 -35 126 -16 223 -25 228 -20 12 12 -19 18 -178 35 -211
24 -406 38 -432 31 -16 -4 -22 -2 -18 5 4 6 -7 10 -29 10 -19 0 -63 11 -98 24
-112 41 -106 40 -78 16z m297 -96 c-3 -3 -12 -4 -19 -1 -8 3 -5 6 6 6 11 1 17
-2 13 -5z"/>
<path d="M3438 4053 c7 -3 16 -2 19 1 4 3 -2 6 -13 5 -11 0 -14 -3 -6 -6z"/>
<path d="M3540 4051 c64 -7 229 -44 295 -66 11 -3 7 1 -8 10 -46 27 -176 55
-272 60 l-90 4 75 -8z"/>
<path d="M4157 3813 c-4 -3 -7 -34 -7 -67 0 -43 -3 -57 -10 -46 -5 8 -10 29
-10 47 0 34 -16 51 -32 35 -6 -6 -4 -15 6 -25 27 -27 18 -39 -13 -16 -27 19
-32 20 -76 7 l-48 -13 63 -38 c70 -41 86 -41 49 0 l-24 27 33 -23 c37 -26 49
-50 65 -133 6 -32 15 -58 20 -58 5 0 7 10 3 23 -3 12 -9 40 -13 62 -6 38 -5
39 12 25 18 -15 18 -14 0 13 -15 23 -17 41 -12 107 6 80 6 86 -6 73z"/>
<path d="M4472 3770 c0 -14 2 -19 5 -12 2 6 2 18 0 25 -3 6 -5 1 -5 -13z"/>
<path d="M4481 3724 c0 -11 3 -14 6 -6 3 7 2 16 -1 19 -3 4 -6 -2 -5 -13z"/>
<path d="M5269 3643 c-13 -16 -12 -17 4 -4 16 13 21 21 13 21 -2 0 -10 -8 -17
-17z"/>
<path d="M5952 3509 c-10 -3 8 -9 42 -13 35 -5 62 -4 68 2 11 11 -82 21 -110
11z"/>
<path d="M4172 3480 c0 -14 2 -19 5 -12 2 6 2 18 0 25 -3 6 -5 1 -5 -13z"/>
<path d="M5960 3470 c0 -5 7 -10 16 -10 8 0 13 -4 10 -9 -3 -5 8 -14 26 -20
41 -14 49 -13 19 3 -20 11 -21 14 -7 19 10 4 14 11 11 17 -8 13 -75 13 -75 0z"/>
<path d="M5988 3413 c7 -3 16 -2 19 1 4 3 -2 6 -13 5 -11 0 -14 -3 -6 -6z"/>
<path d="M6021 3401 c-7 -5 -13 -21 -13 -35 0 -19 -14 -39 -52 -72 -61 -54
-97 -75 -134 -75 -84 -2 -152 3 -157 11 -3 4 -13 6 -24 3 -10 -3 -33 3 -50 11
-17 9 -43 21 -58 27 l-28 10 28 -29 28 -29 -25 -5 c-14 -3 -26 -1 -26 4 0 5
-5 6 -10 3 -6 -4 -8 -10 -5 -15 3 -5 -3 -11 -12 -13 -10 -3 0 -5 21 -6 l39 -1
-19 -22 c-15 -17 -15 -20 -2 -9 19 14 82 6 73 -9 -8 -13 -79 -32 -83 -22 -1 4
-20 6 -42 4 -31 -3 -44 1 -64 22 -15 14 -26 29 -26 33 0 5 20 30 45 56 25 26
41 47 36 47 -5 0 -23 -17 -40 -37 -18 -22 -31 -31 -31 -22 0 8 3 19 8 25 4 5
-1 1 -10 -9 -10 -11 -18 -26 -18 -35 0 -8 -12 -31 -26 -51 l-26 -36 27 29 c22
24 29 26 36 15 5 -8 9 -17 9 -20 0 -9 49 -29 71 -29 19 0 18 -3 -11 -42 l-32
-43 34 36 c24 27 44 38 75 43 23 3 49 9 59 13 14 5 11 -3 -11 -33 -24 -34 -22
-32 14 9 29 32 50 47 67 47 l25 0 -27 -37 c-25 -35 -24 -35 10 5 31 35 44 42
74 42 l36 0 -39 -42 -40 -43 45 43 c25 23 53 42 62 42 21 0 60 -49 51 -64 -4
-8 -3 -8 6 0 10 9 7 21 -13 53 -25 39 -22 57 4 26 7 -8 21 -15 32 -15 18 0 19
-2 7 -17 -13 -17 -13 -17 7 0 21 17 55 23 68 10 3 -4 -11 -25 -31 -47 l-38
-41 45 41 c50 45 93 69 69 37 -7 -10 -26 -34 -43 -53 -18 -20 -7 -14 24 16 30
29 70 66 88 83 53 49 61 36 11 -16 -24 -27 -53 -60 -64 -74 -11 -14 9 6 45 43
36 38 71 68 78 68 7 0 11 4 8 9 -3 5 4 22 16 37 l22 29 -25 -22 c-19 -17 -28
-19 -42 -11 -10 5 -21 7 -24 4 -3 -3 5 -10 18 -15 13 -5 19 -10 12 -10 -6 -1
-24 4 -38 9 -23 9 -26 8 -20 -9 4 -13 -2 -25 -21 -40 -35 -28 -52 -27 -28 2
l19 22 -25 -21 c-15 -11 -35 -18 -48 -16 l-24 4 21 22 c20 21 20 22 1 22 -10
0 -16 -5 -13 -11 3 -5 0 -4 -8 2 -11 11 -6 19 27 49 23 22 34 39 27 41 -25 9
10 29 46 26 20 -1 26 1 14 3 -56 13 -48 70 8 62 16 -3 26 -1 23 4 -7 11 -55
10 -73 -1z m-31 -94 c0 -2 -12 -14 -27 -28 l-28 -24 24 28 c23 25 31 32 31 24z
m-377 -124 c-13 -2 -33 -2 -45 0 -13 2 -3 4 22 4 25 0 35 -2 23 -4z"/>
<path d="M3764 3385 c22 -17 40 -20 32 -6 -3 5 -16 11 -28 14 -22 6 -22 5 -4
-8z"/>
<path d="M5960 3390 c8 -5 20 -10 25 -10 6 0 3 5 -5 10 -8 5 -19 10 -25 10 -5
0 -3 -5 5 -10z"/>
<path d="M5620 3375 c-6 -8 -10 -19 -8 -26 2 -6 9 0 16 15 13 29 10 33 -8 11z"/>
<path d="M3821 3366 c-9 -10 -9 -20 -3 -33 7 -12 7 -25 1 -36 -7 -11 -6 -17 1
-17 5 0 10 4 10 8 0 5 15 7 33 5 28 -4 30 -3 12 8 -22 13 -45 39 -45 51 0 4
19 8 43 8 31 0 38 3 27 10 -22 14 -66 12 -79 -4z"/>
<path d="M3746 3359 c3 -5 0 -9 -6 -9 -6 0 -9 -4 -6 -9 4 -5 1 -11 -6 -13 -7
-3 -5 -7 6 -11 11 -5 15 -3 10 5 -5 8 -2 9 9 5 10 -3 17 -2 17 3 0 6 -6 10
-12 11 -7 1 -2 4 12 8 l25 7 -27 6 c-15 3 -25 1 -22 -3z"/>
<path d="M5646 3343 c-6 -14 -5 -15 5 -6 7 7 10 15 7 18 -3 3 -9 -2 -12 -12z"/>
<path d="M5830 3345 c0 -5 5 -17 10 -25 5 -8 10 -10 10 -5 0 6 -5 17 -10 25
-5 8 -10 11 -10 5z"/>
<path d="M6210 3320 c0 -5 4 -10 9 -10 6 0 13 5 16 10 3 6 -1 10 -9 10 -9 0
-16 -4 -16 -10z"/>
<path d="M3310 3290 c5 -16 11 -34 14 -39 3 -5 -11 -12 -32 -16 -20 -4 -41
-10 -47 -15 -5 -5 -30 -5 -55 0 -32 6 -52 4 -70 -6 -14 -7 -19 -13 -11 -14 11
0 11 -3 1 -15 -6 -8 -10 -20 -7 -27 4 -9 6 -8 6 3 2 33 37 52 87 46 29 -3 56
0 74 10 27 13 119 11 142 -3 4 -3 8 -3 8 -1 0 3 -15 14 -34 25 -18 11 -42 34
-52 51 -23 39 -35 40 -24 1z"/>
<path d="M3680 3296 c0 -2 8 -10 18 -17 15 -13 16 -12 3 4 -13 16 -21 21 -21
13z"/>
<path d="M5528 3293 c7 -3 16 -2 19 1 4 3 -2 6 -13 5 -11 0 -14 -3 -6 -6z"/>
<path d="M6188 3293 c12 -2 32 -2 45 0 12 2 2 4 -23 4 -25 0 -35 -2 -22 -4z"/>
<path d="M3740 3215 c-25 -14 -50 -25 -57 -25 -6 0 -14 -9 -17 -20 -3 -11 -9
-29 -12 -40 -4 -16 -1 -20 18 -20 13 0 33 -7 45 -15 30 -21 126 -22 157 -1 14
9 26 23 26 30 0 19 -26 39 -42 33 -9 -4 -7 -6 3 -6 23 -1 31 -27 13 -42 -24
-20 -116 -23 -139 -5 -19 15 -18 15 20 17 22 1 54 4 70 8 27 6 28 7 10 16 -11
4 -47 11 -79 14 l-59 6 52 33 c74 48 69 58 -9 17z"/>
<path d="M6189 3138 c-30 -35 -46 -57 -36 -49 21 17 101 111 94 111 -3 0 -29
-28 -58 -62z"/>
<path d="M3415 3170 c16 -7 14 -9 -13 -9 -40 -1 -73 -27 -44 -34 10 -3 7 -5
-10 -6 -15 0 -29 -4 -31 -8 -3 -5 16 -7 41 -5 l47 2 -54 -25 c-29 -14 -61 -25
-70 -26 -10 0 -11 -2 -4 -6 7 -2 47 9 89 26 42 17 85 31 96 31 18 0 19 -2 7
-17 -8 -9 0 -7 19 7 17 13 32 27 32 32 0 4 6 8 14 8 8 0 16 7 20 15 4 12 -3
15 -32 16 -20 0 -57 2 -82 4 -31 2 -39 0 -25 -5z m28 -37 c-7 -2 -19 -2 -25 0
-7 3 -2 5 12 5 14 0 19 -2 13 -5z m64 1 c-3 -3 -12 -4 -19 -1 -8 3 -5 6 6 6
11 1 17 -2 13 -5z"/>
<path d="M3590 3174 c-8 -3 -23 -18 -32 -34 l-17 -30 29 0 c20 0 30 5 30 15 0
8 5 15 11 15 6 0 9 -7 5 -15 -3 -9 0 -15 9 -15 8 0 15 6 15 13 0 6 3 22 6 35
5 18 3 22 -17 21 -13 -1 -31 -3 -39 -5z"/>
<path d="M6105 3098 l-80 -83 83 80 c76 74 87 85 79 85 -1 0 -38 -37 -82 -82z"/>
<path d="M3298 3153 c6 -2 18 -2 25 0 6 3 1 5 -13 5 -14 0 -19 -2 -12 -5z"/>
<path d="M3100 3101 c0 -10 39 -46 43 -40 2 2 -7 14 -20 26 -13 12 -23 19 -23
14z"/>
<path d="M3220 3085 c-13 -14 -33 -25 -44 -26 -12 0 -15 -3 -8 -6 6 -2 10 -8
8 -11 -2 -4 17 -5 42 -2 34 3 39 5 20 8 -34 4 -34 9 -6 39 12 13 19 23 16 23
-2 0 -15 -11 -28 -25z"/>
<path d="M3659 3063 c-13 -16 -12 -17 4 -4 9 7 17 15 17 17 0 8 -8 3 -21 -13z"/>
<path d="M3519 3043 l-24 -28 28 24 c25 23 32 31 24 31 -2 0 -14 -12 -28 -27z"/>
<path d="M3399 3023 l-34 -38 38 34 c20 19 37 36 37 38 0 8 -8 0 -41 -34z"/>
<path d="M3584 3028 l-19 -23 23 19 c21 18 27 26 19 26 -2 0 -12 -10 -23 -22z"/>
<path d="M3629 3023 c-13 -16 -12 -17 4 -4 16 13 21 21 13 21 -2 0 -10 -8 -17
-17z"/>
<path d="M3779 3013 c-13 -16 -12 -17 4 -4 16 13 21 21 13 21 -2 0 -10 -8 -17
-17z"/>
<path d="M3675 2994 c-9 -15 -12 -23 -6 -20 11 7 35 46 28 46 -3 0 -12 -12
-22 -26z"/>
<path d="M3089 2943 c-13 -16 -12 -17 4 -4 16 13 21 21 13 21 -2 0 -10 -8 -17
-17z"/>
<path d="M4575 2898 c-3 -13 -1 -36 4 -53 8 -27 9 -25 10 23 1 55 -5 67 -14
30z"/>
<path d="M4996 2343 c-4 -4 -28 -10 -54 -14 l-47 -6 56 -2 c35 -1 62 4 75 14
19 14 19 14 -2 15 -11 0 -24 -3 -28 -7z"/>
<path d="M4330 2331 c0 -10 76 -31 85 -23 3 3 -12 11 -32 19 -45 15 -53 16
-53 4z"/>
<path d="M4848 2313 c6 -2 18 -2 25 0 6 3 1 5 -13 5 -14 0 -19 -2 -12 -5z"/>
<path d="M4630 2280 c-34 -7 -34 -7 -5 -8 17 0 41 4 55 8 33 11 0 11 -50 0z"/>
<path d="M3940 4234 c-41 -14 -138 -36 -215 -49 -77 -13 -129 -24 -115 -24 73
-2 420 76 420 94 0 7 -8 5 -90 -21z"/>
<path d="M2760 3305 c0 -2 18 -14 40 -25 22 -11 40 -18 40 -15 0 2 -18 14 -40
25 -22 11 -40 18 -40 15z"/>
<path d="M6768 3413 c18 -2 45 -2 60 0 15 2 0 4 -33 4 -33 0 -45 -2 -27 -4z"/>
<path d="M6831 3132 c-58 -91 -106 -122 -187 -122 -24 0 -44 -4 -44 -8 0 -4
30 -6 68 -4 73 4 98 17 143 73 26 31 65 109 55 109 -2 0 -18 -21 -35 -48z"/>
<path d="M3995 1440 c-16 -11 -26 -20 -22 -20 11 0 67 29 67 35 0 10 -16 4
-45 -15z"/>
<path d="M5980 7625 c35 -36 67 -65 69 -65 3 0 -24 29 -59 65 -35 36 -67 65
-69 65 -3 0 24 -29 59 -65z"/>
<path d="M3520 7506 c0 -2 8 -10 18 -17 15 -13 16 -12 3 4 -13 16 -21 21 -21
13z"/>
<path d="M3569 7466 c39 -47 255 -196 284 -196 5 0 -33 28 -84 61 -52 34 -121
82 -154 107 -33 25 -54 38 -46 28z"/>
<path d="M5258 6573 c6 -2 18 -2 25 0 6 3 1 5 -13 5 -14 0 -19 -2 -12 -5z"/>
<path d="M5535 6569 c-300 -13 -668 -62 -789 -106 -218 -79 -490 -223 -766
-408 -246 -164 -423 -308 -605 -490 -147 -147 -335 -363 -234 -269 59 56 504
411 627 500 295 216 757 423 1337 599 285 86 464 132 565 145 47 6 94 14 105
17 18 6 18 7 -5 14 -14 4 -34 7 -45 6 -11 0 -96 -3 -190 -8z"/>
<path d="M5158 6563 c12 -2 30 -2 40 0 9 3 -1 5 -23 4 -22 0 -30 -2 -17 -4z"/>
<path d="M5025 6549 c-20 -5 -9 -6 30 -2 33 3 62 7 64 9 8 7 -63 2 -94 -7z"/>
<path d="M4935 6084 c-16 -14 -21 -21 -10 -16 30 16 61 41 50 41 -5 0 -23 -11
-40 -25z"/>
<path d="M1175 5814 c75 -61 222 -151 360 -219 211 -103 232 -109 371 -102
162 9 298 58 479 174 86 56 236 166 231 170 -2 2 -16 -1 -31 -7 -16 -6 -34 -9
-40 -6 -7 2 -59 -10 -116 -28 -180 -57 -273 -69 -492 -63 -191 5 -308 20 -452
58 -38 10 -71 16 -73 14 -13 -13 258 -80 373 -91 91 -9 119 -23 45 -24 -188 0
-418 43 -597 114 -82 32 -86 33 -58 10z"/>
<path d="M3785 4980 c-21 -28 -35 -53 -33 -56 3 -2 21 21 42 51 45 69 40 72
-9 5z"/>
<path d="M270 4976 c0 -2 8 -10 18 -17 15 -13 16 -12 3 4 -13 16 -21 21 -21
13z"/>
<path d="M325 4910 c10 -11 20 -20 23 -20 3 0 -3 9 -13 20 -10 11 -20 20 -23
20 -3 0 3 -9 13 -20z"/>
<path d="M410 4818 c24 -27 45 -48 47 -48 8 0 0 9 -44 50 l-48 45 45 -47z"/>
<path d="M510 4725 c13 -14 26 -25 28 -25 3 0 -5 11 -18 25 -13 14 -26 25 -28
25 -3 0 5 -11 18 -25z"/>
<path d="M565 4680 c10 -11 20 -20 23 -20 3 0 -3 9 -13 20 -10 11 -20 20 -23
20 -3 0 3 -9 13 -20z"/>
<path d="M600 4656 c0 -2 8 -10 18 -17 15 -13 16 -12 3 4 -13 16 -21 21 -21
13z"/>
<path d="M46 4521 c5 -4 81 -56 169 -114 227 -150 477 -277 572 -292 29 -4 20
2 -37 25 -162 67 -363 173 -528 279 -156 100 -205 128 -176 102z"/>
<path d="M1518 4243 c7 -3 16 -2 19 1 4 3 -2 6 -13 5 -11 0 -14 -3 -6 -6z"/>
<path d="M1568 4233 c7 -3 16 -2 19 1 4 3 -2 6 -13 5 -11 0 -14 -3 -6 -6z"/>
<path d="M3168 3993 c7 -3 16 -2 19 1 4 3 -2 6 -13 5 -11 0 -14 -3 -6 -6z"/>
<path d="M2800 3970 c-8 -5 -10 -10 -5 -10 6 0 17 5 25 10 8 5 11 10 5 10 -5
0 -17 -5 -25 -10z"/>
<path d="M668 3603 c6 -2 18 -2 25 0 6 3 1 5 -13 5 -14 0 -19 -2 -12 -5z"/>
<path d="M5805 1295 c-126 -118 -232 -221 -234 -227 -2 -7 18 7 45 32 223 208
432 410 424 409 -3 0 -108 -96 -235 -214z"/>
<path d="M5764 1335 c-86 -86 -154 -159 -150 -162 3 -4 7 -4 9 -2 1 3 72 75
157 162 85 86 152 157 148 157 -4 0 -78 -70 -164 -155z"/>
<path d="M3266 1339 c-75 -72 -135 -133 -133 -135 2 -2 66 57 141 131 76 74
136 135 134 135 -3 0 -66 -59 -142 -131z"/>
<path d="M3449 1453 c-13 -16 -12 -17 4 -4 16 13 21 21 13 21 -2 0 -10 -8 -17
-17z"/>
<path d="M3525 1383 c-131 -114 -365 -343 -365 -357 0 -5 75 64 168 155 92 91
199 193 237 227 39 34 68 62 65 62 -3 0 -50 -39 -105 -87z"/>
<path d="M3492 1294 c-178 -171 -308 -312 -298 -322 8 -7 66 48 66 62 0 6 93
104 207 218 114 115 205 208 203 208 -3 0 -83 -75 -178 -166z"/>
<path d="M3217 1356 c-48 -52 -87 -98 -87 -103 0 -4 13 6 28 24 15 17 56 63
91 102 34 39 61 71 59 71 -3 0 -44 -42 -91 -94z"/>
<path d="M3319 1337 c-102 -97 -201 -203 -184 -196 10 4 291 289 284 289 -2
-1 -47 -42 -100 -93z"/>
<path d="M3390 1336 c-144 -129 -243 -231 -238 -247 2 -7 18 6 39 31 44 57
134 148 234 238 44 40 78 72 75 72 -3 0 -52 -42 -110 -94z"/>
<path d="M3584 1298 c-168 -146 -411 -384 -402 -393 9 -9 220 184 213 195 -4
7 217 216 305 289 14 11 22 20 19 21 -4 0 -65 -50 -135 -112z m-194 -201 c0
-2 -15 -16 -32 -33 l-33 -29 29 33 c28 30 36 37 36 29z"/>
<path d="M6045 1373 c-218 -197 -274 -250 -368 -341 -59 -58 -105 -107 -103
-110 4 -4 98 84 451 420 74 71 88 93 20 31z"/>
<path d="M6160 1385 c0 -5 18 -30 41 -55 47 -52 179 -248 178 -264 0 -6 -42
-43 -92 -83 -51 -40 -150 -124 -220 -188 -71 -63 -131 -115 -135 -114 -4 0 87
92 202 204 115 113 207 207 204 210 -7 7 -167 -119 -358 -284 -174 -149 -115
-84 143 156 267 250 239 242 -93 -25 l-165 -132 190 185 c105 102 186 185 182
185 -18 0 -537 -495 -537 -512 0 -20 28 -1 132 90 134 115 285 242 313 261 11
8 -41 -44 -115 -115 -74 -70 -172 -166 -218 -212 l-82 -83 -55 31 c-30 17 -62
41 -70 53 -15 21 -15 21 -15 1 0 -43 168 -234 206 -234 9 0 -6 18 -35 40 -28
22 -51 43 -51 46 0 3 17 -8 38 -25 21 -16 73 -48 114 -71 110 -59 110 -60 36
-113 -35 -25 -74 -56 -88 -69 -14 -13 -65 -50 -115 -82 -151 -98 -258 -181
-239 -184 9 -2 37 11 63 29 25 18 91 64 146 102 55 38 114 84 132 102 28 31
133 105 148 105 4 0 4 -10 0 -22 -5 -19 0 -17 22 11 15 18 48 57 73 86 26 30
59 80 75 112 16 32 64 110 106 173 77 115 181 296 193 336 5 16 -12 49 -63
126 -65 99 -190 245 -191 223z m40 -330 c-13 -14 -28 -25 -34 -25 -6 0 3 11
19 25 39 31 45 32 15 0z m-168 -250 c-174 -172 -242 -233 -254 -229 -10 3 -18
9 -18 13 0 10 494 449 507 451 2 0 -104 -106 -235 -235z m330 186 c-10 -17
-41 -47 -68 -67 -27 -21 -78 -62 -114 -93 -116 -98 -117 -97 -5 9 164 156 200
189 203 185 2 -1 -5 -17 -16 -34z m-71 -129 c-5 -10 -27 -32 -48 -48 -21 -15
-60 -49 -88 -73 -27 -25 -7 -2 44 52 92 93 114 110 92 69z m-264 -211 c-65
-66 -117 -124 -117 -130 0 -20 25 -12 65 21 l40 32 -29 -32 c-25 -27 -27 -32
-12 -38 10 -4 30 4 53 22 l38 29 -23 -33 c-13 -17 -21 -36 -17 -42 3 -5 -7
-28 -22 -52 l-28 -42 -3 32 c-3 28 -14 39 -73 79 -38 25 -69 49 -69 52 0 6 87
87 185 170 22 19 -2 -8 -52 -60 -89 -90 -108 -119 -80 -119 6 0 66 52 132 114
66 63 122 115 124 115 2 1 -48 -53 -112 -118z m165 57 c-12 -18 -49 -58 -84
-88 -35 -30 -56 -46 -49 -35 17 23 144 155 149 155 2 0 -5 -15 -16 -32z m-482
-119 c0 -17 -16 -9 -46 22 l-29 31 38 -22 c20 -12 37 -26 37 -31z m40 -23 c0
-3 -4 -8 -10 -11 -5 -3 -10 -1 -10 4 0 6 5 11 10 11 6 0 10 -2 10 -4z"/>
<path d="M6025 1213 c-156 -140 -410 -391 -403 -399 3 -3 75 64 159 149 85 85
204 200 264 255 61 56 108 102 105 102 -3 0 -59 -48 -125 -107z"/>
<path d="M6010 1122 c-144 -123 -373 -343 -365 -350 3 -3 64 53 137 124 73 71
184 174 246 228 99 88 119 106 110 106 -2 0 -59 -49 -128 -108z"/>
<path d="M6085 1124 c-200 -176 -414 -389 -402 -400 7 -7 131 90 162 128 17
20 16 20 -10 -3 -17 -14 -39 -31 -50 -39 -29 -19 235 242 335 333 47 42 83 77
80 77 -3 0 -55 -43 -115 -96z"/>
<path d="M3754 968 l-19 -23 23 19 c21 18 27 26 19 26 -2 0 -12 -10 -23 -22z"/>
<path d="M1755 342 c-21 -14 -88 -103 -82 -108 11 -11 445 -166 546 -194 160
-46 153 -35 -15 24 -83 29 -185 72 -226 95 -86 49 -214 156 -212 177 2 16 2
16 -11 6z m5 -40 c0 -5 29 -32 65 -62 36 -29 63 -55 61 -57 -3 -3 -175 56
-184 63 -2 1 6 16 19 33 22 30 39 40 39 23z"/>
<path d="M2625 28 c16 -15 34 -28 39 -28 5 0 -4 10 -20 22 -44 33 -53 36 -19
6z"/>
</g>
</svg>
